<svg id="svg" version="1.1" xmlns="http://www.w3.org/2000/svg" xmlns:xlink="http://www.w3.org/1999/xlink" width="400" height="400" viewBox="0, 0, 400,400"><g id="svgg"><path id="path2" d="M260.321 145.125 L 259.917 145.583 260.344 145.208 C 260.579 145.002,260.842 144.833,260.928 144.833 C 261.136 144.833,282.605 166.345,282.719 166.667 C 282.797 166.889,282.808 166.888,282.820 166.666 C 282.835 166.391,261.192 144.667,260.904 144.667 C 260.805 144.667,260.543 144.873,260.321 145.125 M257.247 148.208 L 255.750 149.750 257.292 148.253 C 258.140 147.430,258.833 146.737,258.833 146.712 C 258.833 146.591,258.636 146.776,257.247 148.208 M252.991 152.458 L 252.417 153.083 253.042 152.509 C 253.623 151.974,253.743 151.833,253.616 151.833 C 253.588 151.833,253.307 152.115,252.991 152.458 M249.245 156.208 L 248.250 157.250 249.292 156.255 C 249.865 155.708,250.333 155.239,250.333 155.214 C 250.333 155.090,250.169 155.241,249.245 156.208 M247.161 158.292 L 246.250 159.250 247.208 158.339 C 248.099 157.493,248.243 157.333,248.119 157.333 C 248.093 157.333,247.662 157.765,247.161 158.292 M244.491 160.958 L 243.917 161.583 244.542 161.009 C 245.123 160.474,245.243 160.333,245.116 160.333 C 245.088 160.333,244.807 160.615,244.491 160.958 M241.406 164.042 L 240.917 164.583 241.458 164.094 C 241.963 163.638,242.077 163.500,241.948 163.500 C 241.919 163.500,241.675 163.744,241.406 164.042 M239.745 165.708 L 238.750 166.750 239.792 165.755 C 240.365 165.208,240.833 164.739,240.833 164.714 C 240.833 164.590,240.669 164.741,239.745 165.708 M234.991 170.458 L 234.417 171.083 235.042 170.509 C 235.623 169.974,235.743 169.833,235.616 169.833 C 235.588 169.833,235.307 170.115,234.991 170.458 M231.250 174.167 C 230.153 175.267,229.293 176.167,229.339 176.167 C 229.384 176.167,230.320 175.267,231.417 174.167 C 232.514 173.067,233.374 172.167,233.328 172.167 C 233.282 172.167,232.347 173.067,231.250 174.167 M224.828 180.625 L 223.917 181.583 224.875 180.672 C 225.765 179.826,225.910 179.667,225.786 179.667 C 225.760 179.667,225.329 180.098,224.828 180.625 M222.745 182.708 L 221.750 183.750 222.792 182.755 C 223.759 181.831,223.910 181.667,223.786 181.667 C 223.761 181.667,223.292 182.135,222.745 182.708 M214.411 191.042 L 213.417 192.083 214.458 191.089 C 215.031 190.541,215.500 190.073,215.500 190.047 C 215.500 189.924,215.336 190.074,214.411 191.042 M128.665 197.792 L 125.917 200.583 128.708 197.835 C 131.302 195.282,131.575 195.000,131.456 195.000 C 131.432 195.000,130.176 196.256,128.665 197.792 M209.078 196.375 L 208.083 197.417 209.125 196.422 C 210.093 195.498,210.243 195.333,210.120 195.333 C 210.094 195.333,209.625 195.802,209.078 196.375 M136.250 199.500 C 137.806 201.058,139.117 202.333,139.163 202.333 C 139.209 202.333,137.973 201.058,136.417 199.500 C 134.860 197.942,133.550 196.667,133.504 196.667 C 133.458 196.667,134.694 197.942,136.250 199.500 M205.247 200.208 L 203.750 201.750 205.292 200.253 C 206.724 198.864,206.909 198.667,206.788 198.667 C 206.763 198.667,206.070 199.360,205.247 200.208 M200.080 205.375 L 198.583 206.917 200.125 205.420 C 201.557 204.030,201.743 203.833,201.622 203.833 C 201.597 203.833,200.903 204.527,200.080 205.375 M119.331 207.292 L 116.917 209.750 119.375 207.335 C 121.659 205.092,121.909 204.833,121.790 204.833 C 121.765 204.833,120.659 205.940,119.331 207.292 M145.333 208.417 C 146.844 209.929,148.117 211.167,148.163 211.167 C 148.209 211.167,147.010 209.929,145.500 208.417 C 143.990 206.904,142.716 205.667,142.670 205.667 C 142.625 205.667,143.823 206.904,145.333 208.417 M196.245 209.208 L 195.250 210.250 196.292 209.255 C 197.259 208.331,197.410 208.167,197.286 208.167 C 197.261 208.167,196.792 208.635,196.245 209.208 M190.911 214.542 L 189.917 215.583 190.958 214.589 C 191.531 214.041,192.000 213.573,192.000 213.547 C 192.000 213.424,191.836 213.574,190.911 214.542 M111.621 215.129 C 110.045 216.714,110.024 216.457,111.875 218.253 L 113.417 219.750 111.958 218.247 C 110.203 216.438,110.218 216.708,111.788 215.129 C 112.496 214.416,113.038 213.833,112.992 213.833 C 112.946 213.833,112.329 214.416,111.621 215.129 M155.998 218.875 C 157.234 220.135,158.265 221.167,158.289 221.167 C 158.409 221.167,158.170 220.919,156.042 218.831 L 153.750 216.583 155.998 218.875 M182.578 222.875 L 181.583 223.917 182.625 222.922 C 183.198 222.375,183.667 221.906,183.667 221.880 C 183.667 221.757,183.502 221.907,182.578 222.875 M120.250 226.500 C 121.898 228.150,123.284 229.500,123.330 229.500 C 123.376 229.500,122.065 228.150,120.417 226.500 C 118.769 224.850,117.383 223.500,117.337 223.500 C 117.291 223.500,118.602 224.850,120.250 226.500 M163.083 225.833 C 164.364 227.117,165.450 228.167,165.496 228.167 C 165.541 228.167,164.531 227.117,163.250 225.833 C 161.969 224.550,160.884 223.500,160.838 223.500 C 160.792 223.500,161.802 224.550,163.083 225.833 M180.494 224.958 L 179.583 225.917 180.542 225.006 C 181.432 224.159,181.576 224.000,181.453 224.000 C 181.427 224.000,180.995 224.431,180.494 224.958 M174.083 231.333 C 172.986 232.433,172.126 233.333,172.172 233.333 C 172.218 233.333,173.153 232.433,174.250 231.333 C 175.347 230.233,176.207 229.333,176.161 229.333 C 176.116 229.333,175.180 230.233,174.083 231.333 M130.417 236.500 C 131.973 238.058,133.284 239.333,133.330 239.333 C 133.375 239.333,132.140 238.058,130.583 236.500 C 129.027 234.942,127.716 233.667,127.670 233.667 C 127.625 233.667,128.860 234.942,130.417 236.500 M136.667 242.543 C 136.667 242.567,138.148 244.048,139.958 245.835 L 143.250 249.083 140.002 245.792 C 136.983 242.733,136.667 242.425,136.667 242.543 M150.750 256.500 C 152.306 258.058,153.617 259.333,153.663 259.333 C 153.709 259.333,152.473 258.058,150.917 256.500 C 149.360 254.942,148.050 253.667,148.004 253.667 C 147.958 253.667,149.194 254.942,150.750 256.500 M189.165 260.458 L 186.583 263.083 189.208 260.502 C 191.647 258.104,191.909 257.833,191.790 257.833 C 191.766 257.833,190.584 259.015,189.165 260.458 M159.164 264.708 C 161.252 266.837,161.500 267.076,161.500 266.956 C 161.500 266.932,160.469 265.901,159.208 264.664 L 156.917 262.417 159.164 264.708 M181.581 268.208 L 179.417 270.417 181.625 268.252 C 183.676 266.242,183.909 266.000,183.789 266.000 C 183.765 266.000,182.771 266.994,181.581 268.208 M169.167 274.583 C 170.677 276.096,171.950 277.333,171.996 277.333 C 172.042 277.333,170.844 276.096,169.333 274.583 C 167.823 273.071,166.550 271.833,166.504 271.833 C 166.458 271.833,167.656 273.071,169.167 274.583 M173.996 275.931 C 173.311 276.627,172.600 277.260,172.417 277.338 C 172.190 277.434,172.165 277.482,172.337 277.489 C 172.477 277.495,173.225 276.862,174.000 276.083 C 174.775 275.304,175.372 274.667,175.325 274.667 C 175.279 274.667,174.681 275.236,173.996 275.931 " stroke="none" fill="#7dbcfc" fill-rule="evenodd"></path><path id="path3" d="M271.872 155.457 C 277.901 161.483,282.833 166.495,282.833 166.595 C 282.833 166.695,282.458 167.156,282.000 167.619 C 281.542 168.082,281.167 168.524,281.167 168.601 C 281.167 168.678,281.579 168.312,282.083 167.787 C 282.587 167.262,283.000 166.739,283.000 166.624 C 283.000 166.431,261.188 144.500,260.997 144.500 C 260.949 144.500,265.843 149.430,271.872 155.457 M216.045 189.205 L 171.506 233.744 170.706 232.955 C 170.265 232.521,169.856 232.167,169.797 232.167 C 169.737 232.167,170.075 232.542,170.548 233.000 C 171.021 233.458,171.448 233.833,171.496 233.833 C 171.544 233.833,191.646 213.771,216.167 189.250 C 240.687 164.729,260.712 144.667,260.667 144.667 C 260.621 144.667,240.541 164.709,216.045 189.205 M273.943 175.675 C 270.108 179.520,267.028 182.667,267.099 182.667 C 267.248 182.667,281.000 168.916,281.000 168.766 C 281.000 168.598,281.100 168.500,273.943 175.675 M265.297 184.333 C 264.479 185.158,263.872 185.833,263.948 185.833 C 264.024 185.833,264.748 185.158,265.556 184.333 C 266.364 183.508,266.971 182.833,266.905 182.833 C 266.839 182.833,266.115 183.508,265.297 184.333 M263.358 186.267 C 263.234 186.407,263.166 186.555,263.206 186.595 C 263.247 186.636,263.416 186.518,263.582 186.334 C 263.749 186.150,263.817 186.003,263.734 186.006 C 263.651 186.010,263.482 186.127,263.358 186.267 M259.617 190.005 C 257.803 191.836,256.373 193.333,256.441 193.333 C 256.584 193.333,263.000 186.905,263.000 186.762 C 263.000 186.595,262.972 186.621,259.617 190.005 M255.216 194.416 C 254.685 194.919,254.308 195.332,254.379 195.332 C 254.449 195.333,254.926 194.921,255.439 194.417 C 256.648 193.226,256.472 193.225,255.216 194.416 M128.369 197.885 C 126.700 199.563,125.333 200.985,125.333 201.044 C 125.333 201.103,126.695 199.767,128.359 198.076 C 131.753 194.624,131.502 194.773,132.458 195.647 C 132.848 196.003,133.167 196.238,133.167 196.167 C 133.167 195.978,131.821 194.833,131.598 194.833 C 131.492 194.833,130.039 196.207,128.369 197.885 M253.667 195.945 C 253.310 196.308,253.300 196.344,253.597 196.194 C 253.989 195.996,254.451 195.495,254.229 195.510 C 254.149 195.516,253.896 195.711,253.667 195.945 M133.333 196.457 C 133.333 196.557,133.405 196.664,133.493 196.694 C 133.581 196.725,135.737 198.809,138.285 201.326 C 148.194 211.116,151.890 214.737,151.658 214.429 C 151.459 214.164,141.393 204.150,140.505 203.333 C 140.355 203.196,138.681 201.551,136.783 199.679 C 134.886 197.806,133.333 196.356,133.333 196.457 M246.516 203.095 C 242.903 206.711,239.978 209.700,240.016 209.736 C 240.053 209.773,243.073 206.809,246.727 203.151 C 250.382 199.493,253.307 196.504,253.227 196.510 C 253.148 196.515,250.128 199.478,246.516 203.095 M124.839 201.465 C 124.704 201.622,121.348 205.045,117.380 209.073 C 113.413 213.100,110.167 216.442,110.167 216.500 C 110.167 216.557,111.463 215.287,113.048 213.677 C 114.632 212.067,117.988 208.666,120.506 206.118 C 124.521 202.055,125.372 201.146,125.139 201.173 C 125.108 201.176,124.973 201.308,124.839 201.465 M239.232 210.418 C 238.947 210.738,238.765 211.000,238.828 211.000 C 238.953 211.000,239.548 210.372,239.735 210.042 C 239.935 209.688,239.773 209.810,239.232 210.418 M235.275 214.343 C 233.547 216.078,231.978 217.704,231.788 217.957 C 231.597 218.210,232.299 217.559,233.346 216.511 C 234.393 215.463,236.037 213.832,236.999 212.886 C 237.961 211.941,238.674 211.172,238.583 211.178 C 238.491 211.184,237.003 212.608,235.275 214.343 M156.479 219.205 C 158.553 221.251,162.072 224.723,164.298 226.921 C 166.524 229.118,168.404 230.937,168.476 230.962 C 168.547 230.987,166.726 229.144,164.428 226.866 C 157.636 220.134,152.987 215.587,152.843 215.535 C 152.769 215.508,154.405 217.160,156.479 219.205 M113.833 220.329 C 115.804 222.282,119.160 225.610,121.292 227.724 C 123.423 229.838,125.167 231.502,125.167 231.423 C 125.167 231.343,124.698 230.826,124.125 230.274 C 123.552 229.722,120.946 227.166,118.333 224.593 C 115.720 222.021,112.833 219.210,111.916 218.347 C 111.000 217.484,111.862 218.376,113.833 220.329 M229.055 220.583 C 227.849 221.821,226.904 222.833,226.955 222.833 C 227.079 222.833,231.333 218.555,231.333 218.430 C 231.333 218.252,231.256 218.325,229.055 220.583 M224.769 224.846 C 223.771 225.853,222.984 226.703,223.019 226.734 C 223.054 226.766,223.932 225.938,224.970 224.896 C 226.008 223.853,226.795 223.003,226.720 223.007 C 226.645 223.011,225.767 223.838,224.769 224.846 M220.500 229.102 C 219.263 230.329,218.313 231.333,218.389 231.333 C 218.550 231.333,222.833 227.100,222.833 226.941 C 222.833 226.782,222.920 226.701,220.500 229.102 M169.000 231.454 C 169.000 231.663,169.476 232.079,169.588 231.967 C 169.633 231.923,169.518 231.751,169.334 231.584 C 169.150 231.418,169.000 231.359,169.000 231.454 M125.333 231.523 C 125.333 231.623,130.953 237.208,138.655 244.762 C 143.245 249.264,152.377 258.244,158.048 263.833 C 159.862 265.621,161.407 267.105,161.481 267.131 C 161.640 267.186,157.264 262.855,143.500 249.335 C 137.954 243.887,131.598 237.629,129.375 235.428 C 127.152 233.227,125.333 231.469,125.333 231.523 M214.640 235.007 C 212.707 236.935,211.153 238.541,211.187 238.575 C 211.222 238.608,212.854 237.030,214.815 235.068 C 216.776 233.106,218.330 231.500,218.268 231.500 C 218.207 231.500,216.574 233.078,214.640 235.007 M210.333 239.308 C 210.012 239.617,209.901 239.794,210.085 239.701 C 210.447 239.517,211.097 238.859,210.985 238.789 C 210.947 238.765,210.654 238.999,210.333 239.308 M203.022 246.597 C 199.413 250.219,196.488 253.208,196.522 253.240 C 196.556 253.272,199.575 250.306,203.232 246.649 C 206.889 242.992,209.814 240.003,209.732 240.006 C 209.650 240.009,206.631 242.975,203.022 246.597 M195.863 253.751 C 195.442 254.236,195.382 254.472,195.759 254.159 C 196.011 253.950,196.405 253.333,196.286 253.333 C 196.253 253.333,196.063 253.521,195.863 253.751 M194.581 255.045 C 193.337 256.356,193.080 256.758,194.211 255.624 C 195.188 254.644,195.458 254.323,195.292 254.337 C 195.269 254.339,194.949 254.657,194.581 255.045 M192.514 257.230 L 192.112 257.750 192.589 257.297 C 192.851 257.047,193.032 256.814,192.991 256.777 C 192.950 256.740,192.736 256.944,192.514 257.230 M191.514 258.230 L 191.112 258.750 191.589 258.297 C 191.851 258.047,192.032 257.814,191.991 257.777 C 191.950 257.740,191.736 257.944,191.514 258.230 M183.550 266.292 C 179.519 270.394,175.412 274.594,174.422 275.625 C 173.432 276.656,172.505 277.500,172.361 277.500 C 172.217 277.500,170.331 275.737,168.170 273.583 C 166.009 271.429,164.199 269.667,164.147 269.667 C 163.966 269.667,171.847 277.419,172.186 277.574 C 172.485 277.711,172.809 277.444,174.721 275.490 C 177.452 272.698,185.620 264.377,188.740 261.208 C 190.027 259.902,191.034 258.833,190.978 258.833 C 190.923 258.833,187.580 262.190,183.550 266.292 M162.407 268.124 C 162.859 268.602,163.258 268.965,163.292 268.931 C 163.358 268.864,162.849 268.342,162.066 267.670 C 161.800 267.442,161.954 267.647,162.407 268.124 " stroke="none" fill="#5aacfc" fill-rule="evenodd"></path><path id="path4" d="M216.144 189.417 C 191.622 213.938,171.602 234.000,171.655 234.000 C 171.707 234.000,191.775 213.975,216.250 189.500 C 240.725 165.025,260.825 145.000,260.917 145.000 C 261.151 145.000,282.500 166.374,282.500 166.609 C 282.500 166.714,262.494 186.818,238.042 211.285 C 193.406 255.949,186.815 262.569,177.561 272.042 C 174.807 274.860,172.454 277.167,172.331 277.167 C 172.209 277.167,170.229 275.310,167.932 273.042 C 165.634 270.773,161.504 266.700,158.752 263.992 C 156.001 261.283,151.556 256.900,148.874 254.251 C 146.192 251.602,143.920 249.387,143.826 249.329 C 143.732 249.271,141.200 246.791,138.200 243.820 C 135.200 240.848,130.645 236.354,128.079 233.833 C 117.291 223.237,110.667 216.669,110.667 216.567 C 110.667 216.507,113.723 213.345,117.458 209.540 C 121.194 205.735,125.908 200.928,127.934 198.857 L 131.617 195.091 137.100 200.501 C 140.116 203.476,144.646 207.937,147.167 210.413 C 153.964 217.092,160.647 223.663,166.083 229.013 C 168.742 231.629,171.029 233.827,171.167 233.898 C 171.304 233.968,170.029 232.662,168.333 230.996 C 166.637 229.330,163.675 226.416,161.750 224.521 C 159.825 222.626,153.975 216.880,148.750 211.751 C 143.525 206.622,137.535 200.736,135.439 198.671 L 131.629 194.917 125.049 201.583 C 115.442 211.316,110.590 216.323,110.536 216.556 C 110.510 216.670,112.010 218.256,113.870 220.082 C 115.729 221.907,119.612 225.730,122.500 228.576 C 125.388 231.422,129.813 235.772,132.333 238.243 C 134.854 240.713,139.429 245.214,142.500 248.244 C 145.571 251.275,151.982 257.578,156.747 262.252 C 161.512 266.926,166.898 272.212,168.716 274.000 C 170.534 275.787,172.152 277.272,172.312 277.299 C 172.508 277.332,174.590 275.312,178.669 271.132 C 182.005 267.714,206.750 242.885,233.659 215.957 C 260.567 189.030,282.610 166.875,282.642 166.725 C 282.703 166.440,261.251 144.833,260.907 144.833 C 260.809 144.833,240.666 164.896,216.144 189.417 " stroke="none" fill="#9cccfc" fill-rule="evenodd"></path><path id="path0" d="M216.250 189.500 C 189.715 216.035,171.628 234.000,171.448 234.000 C 171.275 234.000,169.019 231.906,166.198 229.129 C 160.520 223.539,153.766 216.896,147.167 210.413 C 144.646 207.937,140.116 203.476,137.100 200.501 L 131.617 195.091 127.934 198.857 C 125.908 200.928,121.194 205.735,117.458 209.540 C 113.723 213.345,110.667 216.507,110.667 216.567 C 110.667 216.669,117.291 223.237,128.079 233.833 C 130.645 236.354,135.200 240.848,138.200 243.820 C 141.200 246.791,143.732 249.271,143.826 249.329 C 143.920 249.387,146.192 251.602,148.874 254.251 C 151.556 256.900,156.001 261.283,158.752 263.992 C 161.504 266.700,165.634 270.773,167.932 273.042 C 170.229 275.310,172.209 277.167,172.331 277.167 C 172.454 277.167,174.807 274.860,177.561 272.042 C 186.815 262.569,193.406 255.949,238.042 211.285 C 262.494 186.818,282.500 166.713,282.500 166.608 C 282.500 166.373,261.150 145.000,260.916 145.000 C 260.825 145.000,240.725 165.025,216.250 189.500 " stroke="none" fill="#fbfbfc" fill-rule="evenodd"></path><path id="path1" d="M194.500 85.661 C 192.804 85.728,190.629 85.871,189.667 85.978 C 188.704 86.084,187.204 86.249,186.333 86.344 C 185.463 86.438,184.300 86.582,183.750 86.663 C 183.200 86.744,182.188 86.893,181.500 86.995 C 180.813 87.097,179.725 87.289,179.083 87.422 C 173.138 88.654,172.848 88.718,171.292 89.146 C 170.581 89.340,169.419 89.652,168.708 89.839 C 167.998 90.025,166.854 90.364,166.167 90.592 C 165.479 90.821,164.654 91.087,164.333 91.184 C 162.905 91.617,157.719 93.533,157.127 93.847 C 156.968 93.931,156.762 94.000,156.670 94.000 C 156.577 94.000,155.933 94.263,155.239 94.583 C 154.544 94.904,153.943 95.167,153.903 95.167 C 153.763 95.167,152.234 95.887,149.083 97.438 C 145.617 99.143,144.763 99.596,142.202 101.086 C 141.258 101.634,140.340 102.157,140.160 102.248 C 139.980 102.338,139.833 102.470,139.833 102.540 C 139.833 102.609,139.757 102.667,139.663 102.667 C 139.521 102.667,138.571 103.231,137.917 103.704 C 137.825 103.770,136.887 104.401,135.833 105.106 C 134.098 106.267,131.513 108.129,130.007 109.301 C 128.777 110.260,125.550 112.930,124.917 113.515 C 124.550 113.853,123.987 114.343,123.667 114.603 C 121.928 116.012,114.578 123.574,112.346 126.250 C 111.582 127.167,110.797 128.105,110.603 128.335 C 108.589 130.719,103.966 137.360,102.500 139.972 C 102.362 140.217,102.097 140.643,101.911 140.917 C 101.724 141.192,101.464 141.642,101.333 141.917 C 101.202 142.192,100.943 142.641,100.756 142.916 C 99.687 144.488,95.282 153.508,93.797 157.167 C 93.704 157.396,93.552 157.728,93.460 157.905 C 93.368 158.082,93.234 158.420,93.161 158.655 C 93.089 158.891,92.792 159.721,92.500 160.500 C 91.292 163.735,89.636 169.110,89.164 171.333 C 89.096 171.654,88.886 172.517,88.697 173.250 C 88.329 174.680,87.871 176.898,87.665 178.250 C 87.595 178.708,87.463 179.383,87.372 179.750 C 87.120 180.765,86.647 183.943,86.342 186.667 C 86.245 187.537,86.039 189.338,85.885 190.667 C 85.533 193.698,85.488 206.402,85.819 209.083 C 85.932 210.000,86.091 211.425,86.172 212.250 C 86.454 215.112,86.646 216.564,87.160 219.750 C 87.502 221.873,88.540 226.648,89.078 228.583 C 89.232 229.133,89.470 230.033,89.608 230.583 C 90.238 233.085,91.681 237.421,93.075 241.000 C 93.378 241.779,93.724 242.679,93.842 243.000 C 93.960 243.321,94.307 244.133,94.612 244.804 C 94.917 245.475,95.167 246.054,95.167 246.091 C 95.167 246.320,98.560 253.299,99.539 255.083 C 99.841 255.633,100.537 256.856,101.086 257.801 C 101.634 258.745,102.158 259.648,102.250 259.807 C 102.726 260.633,103.593 261.924,103.705 261.972 C 103.776 262.003,103.833 262.098,103.833 262.183 C 103.833 262.318,104.839 263.943,105.216 264.417 C 105.289 264.508,105.770 265.183,106.285 265.917 C 107.088 267.060,108.336 268.740,110.000 270.916 C 110.616 271.722,112.794 274.295,113.661 275.241 C 114.077 275.695,114.717 276.402,115.083 276.812 C 116.358 278.237,122.591 284.423,123.833 285.496 C 124.521 286.090,125.196 286.696,125.333 286.842 C 126.920 288.534,137.357 296.189,139.815 297.464 C 140.054 297.588,140.362 297.786,140.500 297.904 C 140.637 298.022,141.500 298.536,142.417 299.047 C 143.333 299.558,144.496 300.208,145.000 300.492 C 150.582 303.634,158.870 307.085,166.417 309.409 C 167.242 309.663,168.029 309.908,168.167 309.955 C 168.304 310.001,168.642 310.098,168.917 310.172 C 169.192 310.245,170.167 310.507,171.083 310.754 C 173.341 311.361,174.236 311.571,176.333 311.982 C 176.838 312.081,177.813 312.280,178.500 312.424 C 181.203 312.989,184.838 313.510,188.333 313.835 C 189.296 313.924,190.833 314.070,191.750 314.159 C 194.519 314.429,206.180 314.377,209.167 314.081 C 214.981 313.506,218.314 313.071,220.667 312.580 C 221.262 312.455,221.938 312.320,222.167 312.278 C 223.478 312.043,226.137 311.454,227.583 311.079 C 230.686 310.274,231.583 310.036,231.833 309.951 C 231.971 309.904,232.983 309.589,234.083 309.250 C 235.830 308.713,237.665 308.089,238.750 307.663 C 238.933 307.591,239.533 307.370,240.083 307.171 C 240.633 306.972,241.308 306.711,241.583 306.589 C 241.858 306.468,242.346 306.273,242.667 306.155 C 242.987 306.038,243.737 305.723,244.333 305.456 C 244.929 305.189,245.679 304.856,246.000 304.715 C 250.196 302.872,255.048 300.353,258.730 298.106 C 259.727 297.498,260.576 297.000,260.617 297.000 C 260.657 297.000,260.790 296.906,260.911 296.792 C 261.033 296.677,261.738 296.208,262.478 295.750 C 263.218 295.292,263.826 294.860,263.829 294.792 C 263.831 294.723,263.911 294.667,264.007 294.667 C 264.158 294.667,265.103 294.071,265.333 293.829 C 265.379 293.782,265.628 293.608,265.886 293.443 C 266.144 293.279,266.482 293.042,266.636 292.917 C 266.790 292.792,267.554 292.218,268.333 291.641 C 269.980 290.422,273.090 287.939,273.605 287.432 C 273.800 287.240,274.137 286.941,274.355 286.767 C 276.762 284.840,283.763 277.866,286.278 274.889 C 286.716 274.371,286.938 274.102,288.389 272.333 C 290.044 270.315,289.999 270.371,290.585 269.583 C 290.858 269.217,291.123 268.879,291.174 268.833 C 291.225 268.787,291.709 268.112,292.250 267.333 C 292.791 266.554,293.275 265.879,293.325 265.833 C 293.376 265.787,294.037 264.813,294.795 263.667 C 295.552 262.521,296.229 261.508,296.299 261.417 C 296.622 260.990,298.500 257.791,298.500 257.667 C 298.500 257.591,298.556 257.503,298.625 257.472 C 298.746 257.419,299.040 256.921,299.888 255.333 C 300.108 254.921,300.474 254.246,300.700 253.833 C 301.770 251.879,304.500 246.295,304.500 246.060 C 304.500 246.020,304.771 245.371,305.102 244.619 C 305.700 243.260,305.926 242.724,306.173 242.083 C 306.243 241.900,306.489 241.262,306.719 240.667 C 307.095 239.693,307.276 239.193,307.988 237.167 C 308.324 236.209,309.315 233.150,309.608 232.167 C 309.758 231.662,309.939 231.063,310.010 230.833 C 310.082 230.604,310.299 229.742,310.492 228.917 C 310.686 228.092,310.912 227.192,310.994 226.917 C 311.272 225.990,311.810 223.500,312.165 221.500 C 312.271 220.904,312.459 219.892,312.582 219.250 C 312.833 217.948,312.892 217.548,313.232 214.821 C 313.804 210.235,314.166 204.471,314.168 199.913 C 314.170 193.944,313.476 185.572,312.579 180.750 C 311.946 177.351,311.300 174.176,311.085 173.417 C 310.839 172.547,310.401 170.833,310.168 169.833 C 309.968 168.978,308.935 165.610,308.429 164.167 C 308.188 163.479,307.774 162.279,307.510 161.500 C 306.995 159.978,305.429 156.082,304.647 154.373 C 304.383 153.797,304.167 153.286,304.167 153.238 C 304.167 153.091,300.531 145.817,299.924 144.750 C 299.611 144.200,299.248 143.563,299.117 143.333 C 298.986 143.104,298.773 142.729,298.644 142.500 C 298.442 142.141,297.146 139.996,296.094 138.277 C 295.667 137.580,291.310 131.274,291.182 131.167 C 291.126 131.121,290.858 130.783,290.585 130.417 C 290.312 130.050,289.964 129.600,289.810 129.417 C 289.657 129.233,289.011 128.441,288.375 127.657 C 286.778 125.688,286.682 125.573,285.833 124.609 C 283.020 121.415,276.985 115.397,274.773 113.582 C 274.328 113.216,273.801 112.767,273.603 112.583 C 272.527 111.587,270.971 110.342,268.333 108.368 C 267.554 107.784,266.790 107.205,266.636 107.081 C 266.482 106.957,266.144 106.721,265.886 106.557 C 265.628 106.392,265.379 106.218,265.333 106.171 C 265.161 105.990,264.176 105.333,264.078 105.333 C 264.022 105.333,263.878 105.240,263.759 105.125 C 263.639 105.010,263.400 104.825,263.229 104.714 C 263.057 104.602,262.515 104.246,262.025 103.922 C 261.534 103.598,261.106 103.333,261.072 103.333 C 261.039 103.333,260.372 102.921,259.591 102.417 C 258.809 101.912,258.136 101.500,258.094 101.500 C 258.053 101.500,257.546 101.206,256.968 100.847 C 254.874 99.547,249.521 96.833,246.000 95.285 C 245.679 95.144,245.004 94.843,244.500 94.615 C 243.244 94.049,240.674 92.989,240.167 92.827 C 239.938 92.754,239.000 92.419,238.083 92.081 C 237.167 91.744,235.967 91.332,235.417 91.167 C 234.867 91.001,233.554 90.591,232.500 90.255 C 231.446 89.920,230.283 89.582,229.917 89.505 C 229.550 89.428,228.800 89.238,228.250 89.082 C 226.479 88.582,225.298 88.324,220.667 87.424 C 213.217 85.976,203.316 85.309,194.500 85.661 M272.041 155.458 C 278.069 161.485,283.000 166.519,283.000 166.646 C 283.000 166.772,262.281 187.596,236.958 212.920 C 194.891 254.991,184.285 265.654,175.571 274.637 C 172.897 277.394,172.519 277.725,172.211 277.580 C 172.020 277.490,168.248 273.854,163.830 269.500 C 159.411 265.146,155.523 261.325,155.190 261.009 C 154.856 260.694,151.991 257.881,148.822 254.759 C 145.653 251.638,141.114 247.171,138.734 244.833 C 136.354 242.496,130.584 236.828,125.912 232.238 C 121.239 227.647,115.854 222.362,113.945 220.492 C 112.035 218.623,110.398 216.954,110.307 216.784 C 110.117 216.429,109.724 216.845,123.073 203.292 C 127.655 198.640,131.510 194.833,131.640 194.833 C 131.770 194.833,133.609 196.540,135.727 198.625 C 137.845 200.710,141.829 204.636,144.580 207.348 C 147.332 210.060,151.758 214.410,154.417 217.014 C 157.075 219.618,161.275 223.748,163.750 226.190 C 166.225 228.633,168.625 230.983,169.083 231.412 C 169.542 231.841,170.274 232.541,170.711 232.968 L 171.506 233.743 216.129 189.122 C 240.671 164.580,260.826 144.500,260.917 144.500 C 261.008 144.500,266.014 149.431,272.041 155.458 " stroke="none" fill="#2c94fc" fill-rule="evenodd"></path><path id="path2" d="M260.321 145.125 L 259.917 145.583 260.344 145.208 C 260.579 145.002,260.842 144.833,260.928 144.833 C 261.136 144.833,282.605 166.345,282.719 166.667 C 282.797 166.889,282.808 166.888,282.820 166.666 C 282.835 166.391,261.192 144.667,260.904 144.667 C 260.805 144.667,260.543 144.873,260.321 145.125 M257.247 148.208 L 255.750 149.750 257.292 148.253 C 258.140 147.430,258.833 146.737,258.833 146.712 C 258.833 146.591,258.636 146.776,257.247 148.208 M252.991 152.458 L 252.417 153.083 253.042 152.509 C 253.623 151.974,253.743 151.833,253.616 151.833 C 253.588 151.833,253.307 152.115,252.991 152.458 M249.245 156.208 L 248.250 157.250 249.292 156.255 C 249.865 155.708,250.333 155.239,250.333 155.214 C 250.333 155.090,250.169 155.241,249.245 156.208 M247.161 158.292 L 246.250 159.250 247.208 158.339 C 248.099 157.493,248.243 157.333,248.119 157.333 C 248.093 157.333,247.662 157.765,247.161 158.292 M244.491 160.958 L 243.917 161.583 244.542 161.009 C 245.123 160.474,245.243 160.333,245.116 160.333 C 245.088 160.333,244.807 160.615,244.491 160.958 M241.406 164.042 L 240.917 164.583 241.458 164.094 C 241.963 163.638,242.077 163.500,241.948 163.500 C 241.919 163.500,241.675 163.744,241.406 164.042 M239.745 165.708 L 238.750 166.750 239.792 165.755 C 240.365 165.208,240.833 164.739,240.833 164.714 C 240.833 164.590,240.669 164.741,239.745 165.708 M234.991 170.458 L 234.417 171.083 235.042 170.509 C 235.623 169.974,235.743 169.833,235.616 169.833 C 235.588 169.833,235.307 170.115,234.991 170.458 M231.250 174.167 C 230.153 175.267,229.293 176.167,229.339 176.167 C 229.384 176.167,230.320 175.267,231.417 174.167 C 232.514 173.067,233.374 172.167,233.328 172.167 C 233.282 172.167,232.347 173.067,231.250 174.167 M224.828 180.625 L 223.917 181.583 224.875 180.672 C 225.765 179.826,225.910 179.667,225.786 179.667 C 225.760 179.667,225.329 180.098,224.828 180.625 M222.745 182.708 L 221.750 183.750 222.792 182.755 C 223.759 181.831,223.910 181.667,223.786 181.667 C 223.761 181.667,223.292 182.135,222.745 182.708 M214.411 191.042 L 213.417 192.083 214.458 191.089 C 215.031 190.541,215.500 190.073,215.500 190.047 C 215.500 189.924,215.336 190.074,214.411 191.042 M128.665 197.792 L 125.917 200.583 128.708 197.835 C 131.302 195.282,131.575 195.000,131.456 195.000 C 131.432 195.000,130.176 196.256,128.665 197.792 M209.078 196.375 L 208.083 197.417 209.125 196.422 C 210.093 195.498,210.243 195.333,210.120 195.333 C 210.094 195.333,209.625 195.802,209.078 196.375 M136.250 199.500 C 137.806 201.058,139.117 202.333,139.163 202.333 C 139.209 202.333,137.973 201.058,136.417 199.500 C 134.860 197.942,133.550 196.667,133.504 196.667 C 133.458 196.667,134.694 197.942,136.250 199.500 M205.247 200.208 L 203.750 201.750 205.292 200.253 C 206.724 198.864,206.909 198.667,206.788 198.667 C 206.763 198.667,206.070 199.360,205.247 200.208 M200.080 205.375 L 198.583 206.917 200.125 205.420 C 201.557 204.030,201.743 203.833,201.622 203.833 C 201.597 203.833,200.903 204.527,200.080 205.375 M119.331 207.292 L 116.917 209.750 119.375 207.335 C 121.659 205.092,121.909 204.833,121.790 204.833 C 121.765 204.833,120.659 205.940,119.331 207.292 M145.333 208.417 C 146.844 209.929,148.117 211.167,148.163 211.167 C 148.209 211.167,147.010 209.929,145.500 208.417 C 143.990 206.904,142.716 205.667,142.670 205.667 C 142.625 205.667,143.823 206.904,145.333 208.417 M196.245 209.208 L 195.250 210.250 196.292 209.255 C 197.259 208.331,197.410 208.167,197.286 208.167 C 197.261 208.167,196.792 208.635,196.245 209.208 M190.911 214.542 L 189.917 215.583 190.958 214.589 C 191.531 214.041,192.000 213.573,192.000 213.547 C 192.000 213.424,191.836 213.574,190.911 214.542 M111.621 215.129 C 110.045 216.714,110.024 216.457,111.875 218.253 L 113.417 219.750 111.958 218.247 C 110.203 216.438,110.218 216.708,111.788 215.129 C 112.496 214.416,113.038 213.833,112.992 213.833 C 112.946 213.833,112.329 214.416,111.621 215.129 M155.998 218.875 C 157.234 220.135,158.265 221.167,158.289 221.167 C 158.409 221.167,158.170 220.919,156.042 218.831 L 153.750 216.583 155.998 218.875 M182.578 222.875 L 181.583 223.917 182.625 222.922 C 183.198 222.375,183.667 221.906,183.667 221.880 C 183.667 221.757,183.502 221.907,182.578 222.875 M120.250 226.500 C 121.898 228.150,123.284 229.500,123.330 229.500 C 123.376 229.500,122.065 228.150,120.417 226.500 C 118.769 224.850,117.383 223.500,117.337 223.500 C 117.291 223.500,118.602 224.850,120.250 226.500 M163.083 225.833 C 164.364 227.117,165.450 228.167,165.496 228.167 C 165.541 228.167,164.531 227.117,163.250 225.833 C 161.969 224.550,160.884 223.500,160.838 223.500 C 160.792 223.500,161.802 224.550,163.083 225.833 M180.494 224.958 L 179.583 225.917 180.542 225.006 C 181.432 224.159,181.576 224.000,181.453 224.000 C 181.427 224.000,180.995 224.431,180.494 224.958 M174.083 231.333 C 172.986 232.433,172.126 233.333,172.172 233.333 C 172.218 233.333,173.153 232.433,174.250 231.333 C 175.347 230.233,176.207 229.333,176.161 229.333 C 176.116 229.333,175.180 230.233,174.083 231.333 M130.417 236.500 C 131.973 238.058,133.284 239.333,133.330 239.333 C 133.375 239.333,132.140 238.058,130.583 236.500 C 129.027 234.942,127.716 233.667,127.670 233.667 C 127.625 233.667,128.860 234.942,130.417 236.500 M136.667 242.543 C 136.667 242.567,138.148 244.048,139.958 245.835 L 143.250 249.083 140.002 245.792 C 136.983 242.733,136.667 242.425,136.667 242.543 M150.750 256.500 C 152.306 258.058,153.617 259.333,153.663 259.333 C 153.709 259.333,152.473 258.058,150.917 256.500 C 149.360 254.942,148.050 253.667,148.004 253.667 C 147.958 253.667,149.194 254.942,150.750 256.500 M189.165 260.458 L 186.583 263.083 189.208 260.502 C 191.647 258.104,191.909 257.833,191.790 257.833 C 191.766 257.833,190.584 259.015,189.165 260.458 M159.164 264.708 C 161.252 266.837,161.500 267.076,161.500 266.956 C 161.500 266.932,160.469 265.901,159.208 264.664 L 156.917 262.417 159.164 264.708 M181.581 268.208 L 179.417 270.417 181.625 268.252 C 183.676 266.242,183.909 266.000,183.789 266.000 C 183.765 266.000,182.771 266.994,181.581 268.208 M169.167 274.583 C 170.677 276.096,171.950 277.333,171.996 277.333 C 172.042 277.333,170.844 276.096,169.333 274.583 C 167.823 273.071,166.550 271.833,166.504 271.833 C 166.458 271.833,167.656 273.071,169.167 274.583 M173.996 275.931 C 173.311 276.627,172.600 277.260,172.417 277.338 C 172.190 277.434,172.165 277.482,172.337 277.489 C 172.477 277.495,173.225 276.862,174.000 276.083 C 174.775 275.304,175.372 274.667,175.325 274.667 C 175.279 274.667,174.681 275.236,173.996 275.931 " stroke="none" fill="#7dbcfc" fill-rule="evenodd"></path><path id="path3" d="M271.872 155.457 C 277.901 161.483,282.833 166.495,282.833 166.595 C 282.833 166.695,282.458 167.156,282.000 167.619 C 281.542 168.082,281.167 168.524,281.167 168.601 C 281.167 168.678,281.579 168.312,282.083 167.787 C 282.587 167.262,283.000 166.739,283.000 166.624 C 283.000 166.431,261.188 144.500,260.997 144.500 C 260.949 144.500,265.843 149.430,271.872 155.457 M216.045 189.205 L 171.506 233.744 170.706 232.955 C 170.265 232.521,169.856 232.167,169.797 232.167 C 169.737 232.167,170.075 232.542,170.548 233.000 C 171.021 233.458,171.448 233.833,171.496 233.833 C 171.544 233.833,191.646 213.771,216.167 189.250 C 240.687 164.729,260.712 144.667,260.667 144.667 C 260.621 144.667,240.541 164.709,216.045 189.205 M273.943 175.675 C 270.108 179.520,267.028 182.667,267.099 182.667 C 267.248 182.667,281.000 168.916,281.000 168.766 C 281.000 168.598,281.100 168.500,273.943 175.675 M265.297 184.333 C 264.479 185.158,263.872 185.833,263.948 185.833 C 264.024 185.833,264.748 185.158,265.556 184.333 C 266.364 183.508,266.971 182.833,266.905 182.833 C 266.839 182.833,266.115 183.508,265.297 184.333 M263.358 186.267 C 263.234 186.407,263.166 186.555,263.206 186.595 C 263.247 186.636,263.416 186.518,263.582 186.334 C 263.749 186.150,263.817 186.003,263.734 186.006 C 263.651 186.010,263.482 186.127,263.358 186.267 M259.617 190.005 C 257.803 191.836,256.373 193.333,256.441 193.333 C 256.584 193.333,263.000 186.905,263.000 186.762 C 263.000 186.595,262.972 186.621,259.617 190.005 M255.216 194.416 C 254.685 194.919,254.308 195.332,254.379 195.332 C 254.449 195.333,254.926 194.921,255.439 194.417 C 256.648 193.226,256.472 193.225,255.216 194.416 M128.369 197.885 C 126.700 199.563,125.333 200.985,125.333 201.044 C 125.333 201.103,126.695 199.767,128.359 198.076 C 131.753 194.624,131.502 194.773,132.458 195.647 C 132.848 196.003,133.167 196.238,133.167 196.167 C 133.167 195.978,131.821 194.833,131.598 194.833 C 131.492 194.833,130.039 196.207,128.369 197.885 M253.667 195.945 C 253.310 196.308,253.300 196.344,253.597 196.194 C 253.989 195.996,254.451 195.495,254.229 195.510 C 254.149 195.516,253.896 195.711,253.667 195.945 M133.333 196.457 C 133.333 196.557,133.405 196.664,133.493 196.694 C 133.581 196.725,135.737 198.809,138.285 201.326 C 148.194 211.116,151.890 214.737,151.658 214.429 C 151.459 214.164,141.393 204.150,140.505 203.333 C 140.355 203.196,138.681 201.551,136.783 199.679 C 134.886 197.806,133.333 196.356,133.333 196.457 M246.516 203.095 C 242.903 206.711,239.978 209.700,240.016 209.736 C 240.053 209.773,243.073 206.809,246.727 203.151 C 250.382 199.493,253.307 196.504,253.227 196.510 C 253.148 196.515,250.128 199.478,246.516 203.095 M124.839 201.465 C 124.704 201.622,121.348 205.045,117.380 209.073 C 113.413 213.100,110.167 216.442,110.167 216.500 C 110.167 216.557,111.463 215.287,113.048 213.677 C 114.632 212.067,117.988 208.666,120.506 206.118 C 124.521 202.055,125.372 201.146,125.139 201.173 C 125.108 201.176,124.973 201.308,124.839 201.465 M239.232 210.418 C 238.947 210.738,238.765 211.000,238.828 211.000 C 238.953 211.000,239.548 210.372,239.735 210.042 C 239.935 209.688,239.773 209.810,239.232 210.418 M235.275 214.343 C 233.547 216.078,231.978 217.704,231.788 217.957 C 231.597 218.210,232.299 217.559,233.346 216.511 C 234.393 215.463,236.037 213.832,236.999 212.886 C 237.961 211.941,238.674 211.172,238.583 211.178 C 238.491 211.184,237.003 212.608,235.275 214.343 M156.479 219.205 C 158.553 221.251,162.072 224.723,164.298 226.921 C 166.524 229.118,168.404 230.937,168.476 230.962 C 168.547 230.987,166.726 229.144,164.428 226.866 C 157.636 220.134,152.987 215.587,152.843 215.535 C 152.769 215.508,154.405 217.160,156.479 219.205 M113.833 220.329 C 115.804 222.282,119.160 225.610,121.292 227.724 C 123.423 229.838,125.167 231.502,125.167 231.423 C 125.167 231.343,124.698 230.826,124.125 230.274 C 123.552 229.722,120.946 227.166,118.333 224.593 C 115.720 222.021,112.833 219.210,111.916 218.347 C 111.000 217.484,111.862 218.376,113.833 220.329 M229.055 220.583 C 227.849 221.821,226.904 222.833,226.955 222.833 C 227.079 222.833,231.333 218.555,231.333 218.430 C 231.333 218.252,231.256 218.325,229.055 220.583 M224.769 224.846 C 223.771 225.853,222.984 226.703,223.019 226.734 C 223.054 226.766,223.932 225.938,224.970 224.896 C 226.008 223.853,226.795 223.003,226.720 223.007 C 226.645 223.011,225.767 223.838,224.769 224.846 M220.500 229.102 C 219.263 230.329,218.313 231.333,218.389 231.333 C 218.550 231.333,222.833 227.100,222.833 226.941 C 222.833 226.782,222.920 226.701,220.500 229.102 M169.000 231.454 C 169.000 231.663,169.476 232.079,169.588 231.967 C 169.633 231.923,169.518 231.751,169.334 231.584 C 169.150 231.418,169.000 231.359,169.000 231.454 M125.333 231.523 C 125.333 231.623,130.953 237.208,138.655 244.762 C 143.245 249.264,152.377 258.244,158.048 263.833 C 159.862 265.621,161.407 267.105,161.481 267.131 C 161.640 267.186,157.264 262.855,143.500 249.335 C 137.954 243.887,131.598 237.629,129.375 235.428 C 127.152 233.227,125.333 231.469,125.333 231.523 M214.640 235.007 C 212.707 236.935,211.153 238.541,211.187 238.575 C 211.222 238.608,212.854 237.030,214.815 235.068 C 216.776 233.106,218.330 231.500,218.268 231.500 C 218.207 231.500,216.574 233.078,214.640 235.007 M210.333 239.308 C 210.012 239.617,209.901 239.794,210.085 239.701 C 210.447 239.517,211.097 238.859,210.985 238.789 C 210.947 238.765,210.654 238.999,210.333 239.308 M203.022 246.597 C 199.413 250.219,196.488 253.208,196.522 253.240 C 196.556 253.272,199.575 250.306,203.232 246.649 C 206.889 242.992,209.814 240.003,209.732 240.006 C 209.650 240.009,206.631 242.975,203.022 246.597 M195.863 253.751 C 195.442 254.236,195.382 254.472,195.759 254.159 C 196.011 253.950,196.405 253.333,196.286 253.333 C 196.253 253.333,196.063 253.521,195.863 253.751 M194.581 255.045 C 193.337 256.356,193.080 256.758,194.211 255.624 C 195.188 254.644,195.458 254.323,195.292 254.337 C 195.269 254.339,194.949 254.657,194.581 255.045 M192.514 257.230 L 192.112 257.750 192.589 257.297 C 192.851 257.047,193.032 256.814,192.991 256.777 C 192.950 256.740,192.736 256.944,192.514 257.230 M191.514 258.230 L 191.112 258.750 191.589 258.297 C 191.851 258.047,192.032 257.814,191.991 257.777 C 191.950 257.740,191.736 257.944,191.514 258.230 M183.550 266.292 C 179.519 270.394,175.412 274.594,174.422 275.625 C 173.432 276.656,172.505 277.500,172.361 277.500 C 172.217 277.500,170.331 275.737,168.170 273.583 C 166.009 271.429,164.199 269.667,164.147 269.667 C 163.966 269.667,171.847 277.419,172.186 277.574 C 172.485 277.711,172.809 277.444,174.721 275.490 C 177.452 272.698,185.620 264.377,188.740 261.208 C 190.027 259.902,191.034 258.833,190.978 258.833 C 190.923 258.833,187.580 262.190,183.550 266.292 M162.407 268.124 C 162.859 268.602,163.258 268.965,163.292 268.931 C 163.358 268.864,162.849 268.342,162.066 267.670 C 161.800 267.442,161.954 267.647,162.407 268.124 " stroke="none" fill="#5aacfc" fill-rule="evenodd"></path><path id="path4" d="M216.144 189.417 C 191.622 213.938,171.602 234.000,171.655 234.000 C 171.707 234.000,191.775 213.975,216.250 189.500 C 240.725 165.025,260.825 145.000,260.917 145.000 C 261.151 145.000,282.500 166.374,282.500 166.609 C 282.500 166.714,262.494 186.818,238.042 211.285 C 193.406 255.949,186.815 262.569,177.561 272.042 C 174.807 274.860,172.454 277.167,172.331 277.167 C 172.209 277.167,170.229 275.310,167.932 273.042 C 165.634 270.773,161.504 266.700,158.752 263.992 C 156.001 261.283,151.556 256.900,148.874 254.251 C 146.192 251.602,143.920 249.387,143.826 249.329 C 143.732 249.271,141.200 246.791,138.200 243.820 C 135.200 240.848,130.645 236.354,128.079 233.833 C 117.291 223.237,110.667 216.669,110.667 216.567 C 110.667 216.507,113.723 213.345,117.458 209.540 C 121.194 205.735,125.908 200.928,127.934 198.857 L 131.617 195.091 137.100 200.501 C 140.116 203.476,144.646 207.937,147.167 210.413 C 153.964 217.092,160.647 223.663,166.083 229.013 C 168.742 231.629,171.029 233.827,171.167 233.898 C 171.304 233.968,170.029 232.662,168.333 230.996 C 166.637 229.330,163.675 226.416,161.750 224.521 C 159.825 222.626,153.975 216.880,148.750 211.751 C 143.525 206.622,137.535 200.736,135.439 198.671 L 131.629 194.917 125.049 201.583 C 115.442 211.316,110.590 216.323,110.536 216.556 C 110.510 216.670,112.010 218.256,113.870 220.082 C 115.729 221.907,119.612 225.730,122.500 228.576 C 125.388 231.422,129.813 235.772,132.333 238.243 C 134.854 240.713,139.429 245.214,142.500 248.244 C 145.571 251.275,151.982 257.578,156.747 262.252 C 161.512 266.926,166.898 272.212,168.716 274.000 C 170.534 275.787,172.152 277.272,172.312 277.299 C 172.508 277.332,174.590 275.312,178.669 271.132 C 182.005 267.714,206.750 242.885,233.659 215.957 C 260.567 189.030,282.610 166.875,282.642 166.725 C 282.703 166.440,261.251 144.833,260.907 144.833 C 260.809 144.833,240.666 164.896,216.144 189.417 " stroke="none" fill="#9cccfc" fill-rule="evenodd"></path></g></svg>